<svg width="24" height="24" viewBox="0 0 24 24" fill="none" xmlns="http://www.w3.org/2000/svg">
<path fill-rule="evenodd" clip-rule="evenodd" d="M16.527 18.611H19.0112V8.85482H16.527V18.611ZM19.2919 6.19008C19.2919 7.0715 18.6507 7.67245 17.7694 7.67245C16.8881 7.67245 16.2468 7.0715 16.2468 6.19008C16.2468 5.28864 16.8881 4.66764 17.7694 4.66764C18.6507 4.66764 19.2919 5.28864 19.2919 6.19008ZM12.0796 6.1901H14.5638V13.4623C14.5638 16.7476 12.7006 18.731 9.55541 18.731C6.47027 18.731 4.64716 16.7876 4.64716 13.4623V6.1901H7.13133V13.4623C7.13133 15.2853 7.89254 16.3871 9.6155 16.3871C11.2784 16.3871 12.0796 15.3454 12.0796 13.4623V6.1901ZM2.48389 21.5157H21.5155V2.48405H2.48389V21.5157ZM0 24H24V0H0V24Z" fill="white"/>
</svg>
